<svg width="315" height="104" viewBox="0 0 315 104" fill="none" xmlns="http://www.w3.org/2000/svg">
<ellipse cx="47.1647" cy="52" rx="12.1906" ry="52" fill="#562BF7" fill-opacity="0.6"/>
<ellipse rx="12.3466" ry="54.4397" transform="matrix(0.707362 -0.706851 0.707362 0.706851 47.2816 51.9352)" fill="#562BF7" fill-opacity="0.8"/>
<ellipse rx="12.3466" ry="54.4394" transform="matrix(0.707362 0.706851 -0.707362 0.706851 47.2417 51.8957)" fill="#562BF7" fill-opacity="0.8"/>
<ellipse rx="8.82249" ry="42.0523" transform="matrix(-0.00448473 0.99999 -0.99999 -0.00447825 47.2411 50.7122)" fill="#562BF7" fill-opacity="0.6"/>
<g clip-path="url(#clip0_13_20)">
<path d="M54.3973 43.4638C54.0425 43.1092 53.4694 43.1092 53.1146 43.4638L52.7598 43.8183C52.405 44.1729 52.4141 44.7456 52.7598 45.0911L52.7689 45.1002C53.1237 45.4547 53.6968 45.4547 54.0516 45.1002L54.4064 44.7456C54.7521 44.382 54.7521 43.8183 54.3973 43.4638ZM47.3559 40.5456L47.3468 40.5456C46.8464 40.5456 46.4461 40.9456 46.4461 41.4456L46.4461 42.3183C46.4461 42.8183 46.8464 43.2183 47.3468 43.2183L47.3559 43.2183C47.8562 43.2183 48.2565 42.8183 48.2565 42.3183L48.2565 41.4456C48.2565 40.9456 47.8562 40.5456 47.3559 40.5456ZM55.5254 51.4092L56.4534 51.4092C56.9537 51.4092 57.354 51.0092 57.354 50.5092L57.354 50.5002C57.354 50.0002 56.9537 49.6002 56.4534 49.6002L55.5345 49.6002C55.0341 49.6002 54.6339 50.0002 54.6339 50.5002L54.6339 50.5092C54.6248 51.0092 55.025 51.4092 55.5254 51.4092ZM44.6175 55.2183L44.6175 58.682C44.6175 59.182 45.0269 59.5911 45.5273 59.5911L49.1663 59.5911C49.6666 59.5911 50.076 59.182 50.076 58.682L50.076 55.2183C51.9319 54.1456 53.0964 52.0183 52.7416 49.6456C52.3777 47.2729 50.4126 45.3729 48.0291 45.082C44.7176 44.682 41.8883 47.2638 41.8883 50.4911C41.8883 52.5183 42.9891 54.2729 44.6175 55.2183ZM40.0688 50.5092L40.0688 50.5002C40.0688 50.0002 39.6685 49.6002 39.1681 49.6002L38.2493 49.6002C37.7489 49.6002 37.3486 50.0002 37.3486 50.5002L37.3486 50.5092C37.3486 51.0092 37.7489 51.4092 38.2493 51.4092L39.1681 51.4092C39.6685 51.4092 40.0688 51.0092 40.0688 50.5092ZM41.9429 43.8092L41.5881 43.4547C41.2333 43.1002 40.6601 43.1002 40.3053 43.4547C39.9505 43.8092 39.9505 44.382 40.3053 44.7365L40.6601 45.0911C41.0149 45.4456 41.5881 45.4365 41.9338 45.0911C42.2977 44.7274 42.2977 44.1638 41.9429 43.8092Z" fill="#FF784D"/>
</g>
<path d="M128.724 72.8684C126.67 72.8684 124.981 71.9333 123.657 70.0631C122.379 68.1473 121.74 65.7754 121.74 62.9473C121.74 59.5262 121.968 56.4017 122.425 53.5736C122.881 50.6999 123.635 47.6666 124.684 44.4736C125.141 43.1052 125.78 42.1245 126.602 41.5315C127.423 40.9385 128.724 40.642 130.504 40.642C131.509 40.642 132.193 40.8017 132.559 41.121C132.969 41.4403 133.175 41.9192 133.175 42.5578C133.175 42.9227 132.924 44.1543 132.422 46.2526C131.965 47.9403 131.6 49.4683 131.326 50.8368C130.413 55.6262 129.957 58.8192 129.957 60.4157C129.957 61.3736 130.071 62.0578 130.299 62.4684C130.527 62.8333 130.892 63.0157 131.395 63.0157C132.079 63.0157 132.924 62.3315 133.928 60.9631C134.978 59.5947 136.073 57.5192 137.215 54.7368C138.401 51.9543 139.543 48.5333 140.638 44.4736C141.003 43.1052 141.551 42.1245 142.281 41.5315C143.057 40.9385 144.199 40.642 145.705 40.642C146.755 40.642 147.485 40.7789 147.896 41.0526C148.307 41.2806 148.512 41.7368 148.512 42.421C148.512 43.5613 147.942 46.6859 146.8 51.7947C145.522 57.6333 144.883 61.2368 144.883 62.6052C144.883 63.4719 145.066 64.1561 145.431 64.6578C145.796 65.114 146.275 65.342 146.869 65.342C147.782 65.342 148.855 64.7947 150.087 63.6999C151.365 62.5596 153.054 60.735 155.154 58.2262C155.702 57.5877 156.318 57.2684 157.003 57.2684C157.596 57.2684 158.052 57.542 158.372 58.0894C158.737 58.6368 158.92 59.3894 158.92 60.3473C158.92 62.1719 158.486 63.5859 157.619 64.5894C155.656 67.0069 153.533 68.9912 151.251 70.542C149.014 72.0929 146.458 72.8684 143.582 72.8684C141.391 72.8684 139.771 72.0245 138.721 70.3368C137.717 68.6491 137.215 66.2771 137.215 63.221C136.439 66.3227 135.275 68.7175 133.723 70.4052C132.171 72.0473 130.504 72.8684 128.724 72.8684Z" fill="white"/>
<path d="M158.229 72.8684C156.495 72.8684 155.262 71.9561 154.532 70.1315C153.847 68.307 153.505 65.3877 153.505 61.3736C153.505 55.4438 154.349 49.8105 156.038 44.4736C156.449 43.1508 157.111 42.1929 158.024 41.5999C158.982 40.9613 160.306 40.642 161.995 40.642C162.908 40.642 163.547 40.7561 163.912 40.9841C164.277 41.2122 164.46 41.6455 164.46 42.2841C164.46 43.014 164.118 44.6561 163.433 47.2105C162.976 49.035 162.611 50.6315 162.337 51.9999C162.063 53.3684 161.835 55.0561 161.653 57.0631C163.159 53.1403 164.848 49.9473 166.719 47.4841C168.591 45.021 170.417 43.2648 172.197 42.2157C174.023 41.1666 175.689 40.642 177.195 40.642C178.656 40.642 179.752 41.0298 180.482 41.8052C181.258 42.535 181.646 43.6298 181.646 45.0894C181.646 46.2754 181.395 48.5105 180.893 51.7947C180.436 54.5771 180.071 57.2227 179.797 59.7315C179.523 62.1947 179.387 64.9543 179.387 68.0105C179.387 69.7438 179.021 70.9982 178.291 71.7736C177.606 72.5034 176.465 72.8684 174.867 72.8684C173.361 72.8684 172.266 72.4806 171.581 71.7052C170.896 70.9298 170.554 69.7666 170.554 68.2157C170.554 66.3912 170.873 63.3806 171.512 59.1841C172.06 55.535 172.334 53.2087 172.334 52.2052C172.334 51.4754 172.083 51.1105 171.581 51.1105C170.987 51.1105 170.143 51.8859 169.047 53.4368C167.998 54.942 166.902 56.9491 165.761 59.4578C164.665 61.9666 163.775 64.6122 163.091 67.3947C162.588 69.5385 161.995 70.9982 161.31 71.7736C160.671 72.5034 159.644 72.8684 158.229 72.8684Z" fill="white"/>
<path d="M190.778 55.6947C189.683 55.7859 188.793 55.4666 188.108 54.7368C187.469 54.0069 187.149 52.9806 187.149 51.6578C187.149 50.4262 187.446 49.514 188.039 48.921C188.679 48.328 189.591 47.9859 190.778 47.8947L204.815 46.5262C205.956 46.435 206.823 46.7315 207.417 47.4157C208.056 48.0543 208.375 49.0122 208.375 50.2894C208.375 52.7526 207.188 54.0982 204.815 54.3262L190.778 55.6947Z" fill="white"/>
<path d="M223.118 36.1262C221.201 36.1262 219.763 35.6929 218.805 34.8262C217.846 33.914 217.367 32.6596 217.367 31.0631C217.367 29.4666 217.983 28.1438 219.215 27.0947C220.494 25.9999 222.068 25.4526 223.94 25.4526C225.629 25.4526 226.998 25.8631 228.048 26.6841C229.098 27.5052 229.623 28.6684 229.623 30.1736C229.623 31.9982 229.03 33.4578 227.843 34.5526C226.656 35.6017 225.081 36.1262 223.118 36.1262ZM222.571 72.8684C219.603 72.8684 217.435 71.8192 216.066 69.721C214.742 67.6227 214.08 64.8403 214.08 61.3736C214.08 59.321 214.331 56.6982 214.833 53.5052C215.381 50.2666 216.066 47.2561 216.887 44.4736C217.298 43.014 217.846 42.0105 218.531 41.4631C219.215 40.9157 220.311 40.642 221.817 40.642C224.145 40.642 225.309 41.4175 225.309 42.9683C225.309 44.1087 224.876 46.7543 224.008 50.9052C222.913 55.9227 222.365 59.321 222.365 61.0999C222.365 62.4684 222.548 63.5175 222.913 64.2473C223.278 64.9771 223.894 65.342 224.762 65.342C225.583 65.342 226.61 64.7719 227.843 63.6315C229.075 62.4912 230.719 60.6894 232.773 58.2262C233.32 57.5877 233.937 57.2684 234.621 57.2684C235.215 57.2684 235.671 57.542 235.991 58.0894C236.356 58.6368 236.539 59.3894 236.539 60.3473C236.539 62.1719 236.105 63.5859 235.238 64.5894C230.719 70.1087 226.496 72.8684 222.571 72.8684Z" fill="white"/>
<path d="M269.89 57.2684C270.483 57.2684 270.94 57.542 271.259 58.0894C271.625 58.6368 271.807 59.3894 271.807 60.3473C271.807 62.1719 271.374 63.5859 270.506 64.5894C268.635 66.8701 266.581 68.8315 264.344 70.4736C262.107 72.0701 259.893 72.8684 257.702 72.8684C254.233 72.8684 251.586 70.8385 249.76 66.7789C247.843 69.1964 246.154 70.8157 244.693 71.6368C243.278 72.4578 241.612 72.8684 239.695 72.8684C236.91 72.8684 234.605 71.842 232.779 69.7894C230.999 67.6912 230.109 64.9771 230.109 61.6473C230.109 57.9982 230.885 54.6227 232.437 51.521C233.989 48.3736 236.111 45.8192 238.804 43.8578C241.543 41.8508 244.602 40.6648 247.98 40.2999C248.847 31.4508 250.49 23.9017 252.909 17.6526C255.374 11.3578 258.592 8.21045 262.564 8.21045C264.527 8.21045 266.147 9.09992 267.425 10.8789C268.749 12.6578 269.411 15.349 269.411 18.9526C269.411 24.0613 268.155 30.0368 265.645 36.8789C263.134 43.721 259.779 50.7455 255.58 57.9526C255.762 60.5982 256.15 62.4912 256.744 63.6315C257.383 64.7719 258.182 65.342 259.14 65.342C260.373 65.342 261.628 64.7947 262.906 63.6999C264.184 62.6052 265.896 60.7806 268.041 58.2262C268.589 57.5877 269.205 57.2684 269.89 57.2684ZM261.811 14.9157C260.943 14.9157 260.076 16.4666 259.209 19.5683C258.341 22.6245 257.588 26.6385 256.949 31.6105C256.356 36.5824 255.922 41.7824 255.648 47.2105C260.761 36.0806 263.317 27.1403 263.317 20.3894C263.317 18.6561 263.157 17.3105 262.838 16.3526C262.564 15.3947 262.221 14.9157 261.811 14.9157ZM242.091 65.9578C242.958 65.9578 243.826 65.6157 244.693 64.9315C245.56 64.2017 246.656 62.8789 247.98 60.9631C247.523 58.4999 247.295 55.7403 247.295 52.6841C247.295 51.5894 247.34 49.8105 247.432 47.3473C244.921 48.1227 242.821 49.8105 241.132 52.4105C239.489 54.9648 238.668 57.8157 238.668 60.9631C238.668 64.2929 239.809 65.9578 242.091 65.9578Z" fill="white"/>
<path d="M292.187 57.2684C292.781 57.2684 293.237 57.542 293.557 58.0894C293.922 58.6368 294.105 59.3894 294.105 60.3473C294.105 62.1719 293.671 63.5859 292.804 64.5894C290.841 67.0069 288.695 68.9912 286.367 70.542C284.085 72.0929 281.483 72.8684 278.562 72.8684C274.545 72.8684 271.555 71.0438 269.592 67.3947C267.675 63.7455 266.716 59.0245 266.716 53.2315C266.716 47.6666 267.424 41.3262 268.839 34.2105C270.3 27.0947 272.422 20.9824 275.207 15.8736C278.037 10.7648 281.392 8.21045 285.272 8.21045C287.463 8.21045 289.175 9.23677 290.407 11.2894C291.685 13.2964 292.324 16.1929 292.324 19.9789C292.324 25.4069 290.818 31.7017 287.805 38.8631C284.793 46.0245 280.707 53.1175 275.549 60.142C275.869 62.0122 276.394 63.3578 277.124 64.1789C277.854 64.9543 278.813 65.342 280 65.342C281.871 65.342 283.514 64.8175 284.93 63.7684C286.345 62.6736 288.148 60.8262 290.339 58.2262C290.886 57.5877 291.503 57.2684 292.187 57.2684ZM283.766 14.9841C282.716 14.9841 281.529 16.8771 280.205 20.6631C278.881 24.4491 277.717 29.1473 276.713 34.7578C275.709 40.3684 275.161 45.7508 275.07 50.9052C278.311 45.5683 280.89 40.2315 282.807 34.8947C284.724 29.5122 285.683 24.6087 285.683 20.1841C285.683 16.7175 285.044 14.9841 283.766 14.9841Z" fill="white"/>
<path d="M313.083 59.321C313.676 59.321 314.133 59.5947 314.452 60.142C314.817 60.6894 315 61.442 315 62.3999C315 64.042 314.612 65.4561 313.836 66.642C312.558 68.6034 310.869 70.1315 308.769 71.2262C306.715 72.321 304.25 72.8684 301.374 72.8684C296.992 72.8684 293.591 71.5684 291.172 68.9684C288.753 66.3227 287.543 62.7648 287.543 58.2947C287.543 55.1473 288.205 52.228 289.529 49.5368C290.853 46.7999 292.678 44.6333 295.006 43.0368C297.38 41.4403 300.05 40.642 303.017 40.642C305.665 40.642 307.788 41.4403 309.385 43.0368C310.983 44.5876 311.782 46.7087 311.782 49.3999C311.782 52.5473 310.641 55.2613 308.358 57.542C306.121 59.7771 302.287 61.5561 296.855 62.8789C297.951 64.9771 299.799 66.0262 302.401 66.0262C304.273 66.0262 305.802 65.5929 306.989 64.7262C308.221 63.8596 309.636 62.3999 311.234 60.3473C311.782 59.6631 312.398 59.321 313.083 59.321ZM301.854 47.3473C300.165 47.3473 298.727 48.328 297.54 50.2894C296.399 52.2508 295.828 54.6227 295.828 57.4052V57.542C298.521 56.9034 300.644 55.9455 302.196 54.6684C303.748 53.3912 304.524 51.9087 304.524 50.221C304.524 49.3543 304.273 48.6701 303.771 48.1684C303.314 47.621 302.675 47.3473 301.854 47.3473Z" fill="white"/>
<defs>
<clipPath id="clip0_13_20">
<rect width="21.834" height="21.8182" fill="white" transform="translate(58.2637 61.4546) rotate(-180)"/>
</clipPath>
</defs>
</svg>
