<svg width="316" height="104" viewBox="0 0 316 104" fill="none" xmlns="http://www.w3.org/2000/svg">
<ellipse cx="47.3143" cy="52" rx="12.2293" ry="52" fill="#562BF7" fill-opacity="0.6"/>
<ellipse rx="12.3662" ry="54.5262" transform="matrix(0.708482 -0.705729 0.708482 0.705729 47.4316 51.9352)" fill="#562BF7" fill-opacity="0.8"/>
<ellipse rx="12.3662" ry="54.5259" transform="matrix(0.708482 0.705729 -0.708482 0.705729 47.3918 51.8955)" fill="#562BF7" fill-opacity="0.8"/>
<ellipse rx="8.82249" ry="42.1858" transform="matrix(-0.00449896 0.99999 -0.99999 -0.00446408 47.3912 50.7122)" fill="#562BF7" fill-opacity="0.6"/>
<g clip-path="url(#clip0_13_7)">
<path d="M54.5701 43.4635C54.2141 43.109 53.6392 43.109 53.2832 43.4635L52.9273 43.8181C52.5714 44.1726 52.5805 44.7454 52.9273 45.0908L52.9364 45.0999C53.2924 45.4545 53.8673 45.4545 54.2233 45.0999L54.5792 44.7454C54.926 44.3817 54.926 43.8181 54.5701 43.4635ZM47.5063 40.5454L47.4971 40.5454C46.9952 40.5454 46.5936 40.9454 46.5936 41.4454L46.5936 42.3181C46.5936 42.8181 46.9952 43.2181 47.4971 43.2181L47.5063 43.2181C48.0082 43.2181 48.4098 42.8181 48.4098 42.3181L48.4098 41.4454C48.4098 40.9454 48.0082 40.5454 47.5063 40.5454ZM55.7017 51.409L56.6326 51.409C57.1346 51.409 57.5361 51.009 57.5361 50.509L57.5361 50.4999C57.5361 49.9999 57.1346 49.5999 56.6326 49.5999L55.7109 49.5999C55.2089 49.5999 54.8074 49.9999 54.8074 50.4999L54.8074 50.509C54.7982 51.009 55.1998 51.409 55.7017 51.409ZM44.7592 55.2181L44.7592 58.6817C44.7592 59.1817 45.1699 59.5908 45.6719 59.5908L49.3224 59.5908C49.8244 59.5908 50.235 59.1817 50.235 58.6817L50.235 55.2181C52.0968 54.1454 53.265 52.0181 52.9091 49.6454C52.544 47.2726 50.5727 45.3726 48.1816 45.0817C44.8596 44.6817 42.0213 47.2635 42.0213 50.4908C42.0213 52.5181 43.1256 54.2726 44.7592 55.2181ZM40.196 50.509L40.196 50.4999C40.196 49.9999 39.7945 49.5999 39.2925 49.5999L38.3708 49.5999C37.8688 49.5999 37.4673 49.9999 37.4673 50.4999L37.4673 50.509C37.4673 51.009 37.8688 51.409 38.3708 51.409L39.2925 51.409C39.7945 51.409 40.196 51.009 40.196 50.509ZM42.0761 43.809L41.7201 43.4545C41.3642 43.0999 40.7893 43.0999 40.4333 43.4545C40.0774 43.809 40.0774 44.3817 40.4333 44.7363L40.7893 45.0908C41.1452 45.4454 41.7201 45.4363 42.0669 45.0908C42.432 44.7272 42.432 44.1635 42.0761 43.809Z" fill="#FF784D"/>
</g>
<path d="M129.133 72.8683C127.072 72.8683 125.378 71.9333 124.05 70.0631C122.768 68.1473 122.126 65.7754 122.126 62.9473C122.126 59.5262 122.355 56.4017 122.813 53.5736C123.271 50.6999 124.027 47.6666 125.08 44.4736C125.538 43.1052 126.179 42.1245 127.003 41.5315C127.828 40.9385 129.133 40.642 130.919 40.642C131.926 40.642 132.613 40.8017 132.979 41.121C133.391 41.4403 133.597 41.9192 133.597 42.5578C133.597 42.9227 133.345 44.1543 132.842 46.2526C132.384 47.9403 132.018 49.4683 131.743 50.8368C130.827 55.6262 130.369 58.8192 130.369 60.4157C130.369 61.3736 130.483 62.0578 130.712 62.4683C130.941 62.8333 131.308 63.0157 131.811 63.0157C132.498 63.0157 133.345 62.3315 134.353 60.9631C135.406 59.5947 136.505 57.5192 137.65 54.7368C138.841 51.9543 139.985 48.5333 141.084 44.4736C141.451 43.1052 142 42.1245 142.733 41.5315C143.511 40.9385 144.656 40.642 146.167 40.642C147.22 40.642 147.953 40.7789 148.365 41.0526C148.777 41.2806 148.983 41.7368 148.983 42.421C148.983 43.5613 148.411 46.6859 147.266 51.7947C145.984 57.6333 145.343 61.2368 145.343 62.6052C145.343 63.4719 145.526 64.1561 145.892 64.6578C146.259 65.114 146.74 65.342 147.335 65.342C148.251 65.342 149.327 64.7947 150.563 63.6999C151.845 62.5596 153.54 60.735 155.646 58.2262C156.196 57.5876 156.814 57.2683 157.501 57.2683C158.096 57.2683 158.554 57.542 158.874 58.0894C159.241 58.6368 159.424 59.3894 159.424 60.3473C159.424 62.1719 158.989 63.5859 158.119 64.5894C156.15 67.0069 154.021 68.9911 151.731 70.542C149.487 72.0929 146.923 72.8683 144.038 72.8683C141.84 72.8683 140.214 72.0245 139.161 70.3368C138.154 68.649 137.65 66.2771 137.65 63.221C136.871 66.3227 135.704 68.7175 134.147 70.4052C132.59 72.0473 130.919 72.8683 129.133 72.8683Z" fill="black"/>
<path d="M158.731 72.8683C156.991 72.8683 155.755 71.9561 155.022 70.1315C154.335 68.3069 153.992 65.3876 153.992 61.3736C153.992 55.4438 154.839 49.8105 156.533 44.4736C156.945 43.1508 157.609 42.1929 158.525 41.5999C159.487 40.9613 160.815 40.642 162.509 40.642C163.425 40.642 164.066 40.7561 164.432 40.9841C164.799 41.2122 164.982 41.6455 164.982 42.2841C164.982 43.014 164.638 44.6561 163.951 47.2105C163.494 49.035 163.127 50.6315 162.852 51.9999C162.578 53.3683 162.349 55.0561 162.166 57.0631C163.677 53.1403 165.371 49.9473 167.248 47.4841C169.126 45.021 170.958 43.2648 172.744 42.2157C174.575 41.1666 176.247 40.642 177.758 40.642C179.223 40.642 180.322 41.0297 181.055 41.8052C181.833 42.535 182.222 43.6297 182.222 45.0894C182.222 46.2754 181.971 48.5104 181.467 51.7947C181.009 54.5771 180.643 57.2227 180.368 59.7315C180.093 62.1947 179.956 64.9543 179.956 68.0105C179.956 69.7438 179.589 70.9982 178.857 71.7736C178.17 72.5034 177.025 72.8683 175.422 72.8683C173.911 72.8683 172.812 72.4806 172.125 71.7052C171.438 70.9297 171.095 69.7666 171.095 68.2157C171.095 66.3912 171.416 63.3806 172.057 59.1841C172.606 55.535 172.881 53.2087 172.881 52.2052C172.881 51.4754 172.629 51.1105 172.125 51.1105C171.53 51.1105 170.683 51.8859 169.584 53.4368C168.531 54.942 167.432 56.949 166.287 59.4578C165.188 61.9666 164.295 64.6122 163.608 67.3947C163.104 69.5385 162.509 70.9982 161.822 71.7736C161.181 72.5034 160.151 72.8683 158.731 72.8683Z" fill="black"/>
<path d="M191.384 55.6947C190.285 55.7859 189.392 55.4666 188.705 54.7368C188.064 54.0069 187.743 52.9806 187.743 51.6578C187.743 50.4262 188.041 49.514 188.636 48.921C189.277 48.328 190.193 47.9859 191.384 47.8947L205.465 46.5262C206.609 46.435 207.48 46.7315 208.075 47.4157C208.716 48.0543 209.036 49.0122 209.036 50.2894C209.036 52.7526 207.846 54.0982 205.465 54.3262L191.384 55.6947Z" fill="black"/>
<path d="M223.826 36.1262C221.903 36.1262 220.461 35.6929 219.499 34.8262C218.537 33.914 218.057 32.6596 218.057 31.0631C218.057 29.4666 218.675 28.1438 219.911 27.0947C221.193 25.9999 222.773 25.4526 224.651 25.4526C226.345 25.4526 227.719 25.8631 228.772 26.6841C229.825 27.5052 230.352 28.6683 230.352 30.1736C230.352 31.9982 229.756 33.4578 228.566 34.5526C227.375 35.6017 225.795 36.1262 223.826 36.1262ZM223.277 72.8683C220.3 72.8683 218.125 71.8192 216.752 69.721C215.424 67.6227 214.76 64.8403 214.76 61.3736C214.76 59.321 215.011 56.6982 215.515 53.5052C216.065 50.2666 216.752 47.2561 217.576 44.4736C217.988 43.014 218.537 42.0104 219.224 41.4631C219.911 40.9157 221.01 40.642 222.521 40.642C224.857 40.642 226.024 41.4175 226.024 42.9683C226.024 44.1087 225.589 46.7543 224.719 50.9052C223.62 55.9227 223.071 59.321 223.071 61.0999C223.071 62.4683 223.254 63.5175 223.62 64.2473C223.987 64.9771 224.605 65.342 225.475 65.342C226.299 65.342 227.329 64.7719 228.566 63.6315C229.802 62.4912 231.451 60.6894 233.511 58.2262C234.061 57.5876 234.679 57.2683 235.366 57.2683C235.961 57.2683 236.419 57.542 236.74 58.0894C237.106 58.6368 237.289 59.3894 237.289 60.3473C237.289 62.1719 236.854 63.5859 235.984 64.5894C231.451 70.1087 227.215 72.8683 223.277 72.8683Z" fill="black"/>
<path d="M270.747 57.2683C271.342 57.2683 271.8 57.542 272.12 58.0894C272.487 58.6368 272.67 59.3894 272.67 60.3473C272.67 62.1719 272.235 63.5859 271.365 64.5894C269.487 66.8701 267.427 68.8315 265.183 70.4736C262.939 72.0701 260.718 72.8683 258.52 72.8683C255.04 72.8683 252.384 70.8385 250.552 66.7789C248.629 69.1964 246.935 70.8157 245.469 71.6368C244.05 72.4578 242.379 72.8683 240.455 72.8683C237.662 72.8683 235.349 71.842 233.518 69.7894C231.732 67.6912 230.839 64.9771 230.839 61.6473C230.839 57.9982 231.617 54.6227 233.174 51.521C234.731 48.3736 236.861 45.8192 239.562 43.8578C242.31 41.8508 245.378 40.6648 248.767 40.2999C249.637 31.4508 251.285 23.9017 253.712 17.6526C256.185 11.3578 259.413 8.21045 263.397 8.21045C265.366 8.21045 266.992 9.09992 268.274 10.8789C269.602 12.6578 270.266 15.349 270.266 18.9526C270.266 24.0613 269.007 30.0368 266.488 36.8789C263.969 43.721 260.604 50.7455 256.391 57.9526C256.574 60.5982 256.963 62.4912 257.559 63.6315C258.2 64.7719 259.001 65.342 259.963 65.342C261.199 65.342 262.458 64.7947 263.74 63.6999C265.023 62.6052 266.74 60.7806 268.892 58.2262C269.442 57.5876 270.06 57.2683 270.747 57.2683ZM262.641 14.9157C261.771 14.9157 260.901 16.4666 260.031 19.5683C259.161 22.6245 258.406 26.6385 257.765 31.6104C257.169 36.5824 256.734 41.7824 256.46 47.2105C261.588 36.0806 264.153 27.1403 264.153 20.3894C264.153 18.6561 263.992 17.3105 263.672 16.3526C263.397 15.3947 263.054 14.9157 262.641 14.9157ZM242.859 65.9578C243.729 65.9578 244.599 65.6157 245.469 64.9315C246.34 64.2017 247.439 62.8789 248.767 60.9631C248.309 58.4999 248.08 55.7403 248.08 52.6841C248.08 51.5894 248.125 49.8105 248.217 47.3473C245.698 48.1227 243.592 49.8105 241.898 52.4104C240.249 54.9648 239.425 57.8157 239.425 60.9631C239.425 64.2929 240.57 65.9578 242.859 65.9578Z" fill="black"/>
<path d="M293.115 57.2683C293.71 57.2683 294.168 57.542 294.488 58.0894C294.855 58.6368 295.038 59.3894 295.038 60.3473C295.038 62.1719 294.603 63.5859 293.733 64.5894C291.764 67.0069 289.612 68.9911 287.276 70.542C284.987 72.0929 282.377 72.8683 279.446 72.8683C275.416 72.8683 272.417 71.0438 270.448 67.3947C268.524 63.7455 267.563 59.0245 267.563 53.2315C267.563 47.6666 268.273 41.3262 269.692 34.2105C271.158 27.0947 273.287 20.9824 276.08 15.8736C278.919 10.7648 282.285 8.21045 286.177 8.21045C288.375 8.21045 290.092 9.23677 291.329 11.2894C292.611 13.2964 293.252 16.1929 293.252 19.9789C293.252 25.4069 291.741 31.7017 288.719 38.8631C285.696 46.0245 281.598 53.1175 276.424 60.142C276.744 62.0122 277.271 63.3578 278.003 64.1789C278.736 64.9543 279.698 65.342 280.888 65.342C282.766 65.342 284.414 64.8175 285.834 63.7683C287.253 62.6736 289.062 60.8262 291.26 58.2262C291.81 57.5876 292.428 57.2683 293.115 57.2683ZM284.666 14.9841C283.613 14.9841 282.422 16.8771 281.094 20.6631C279.766 24.449 278.599 29.1473 277.591 34.7578C276.584 40.3683 276.034 45.7508 275.943 50.9052C279.194 45.5683 281.781 40.2315 283.704 34.8947C285.628 29.5122 286.589 24.6087 286.589 20.1841C286.589 16.7175 285.948 14.9841 284.666 14.9841Z" fill="black"/>
<path d="M314.076 59.321C314.672 59.321 315.13 59.5947 315.45 60.142C315.816 60.6894 316 61.442 316 62.3999C316 64.042 315.61 65.4561 314.832 66.642C313.55 68.6034 311.855 70.1315 309.749 71.2262C307.688 72.321 305.216 72.8683 302.331 72.8683C297.935 72.8683 294.523 71.5683 292.096 68.9683C289.669 66.3227 288.456 62.7648 288.456 58.2947C288.456 55.1473 289.12 52.228 290.448 49.5368C291.776 46.7999 293.607 44.6333 295.943 43.0368C298.324 41.4403 301.003 40.642 303.979 40.642C306.635 40.642 308.764 41.4403 310.367 43.0368C311.97 44.5876 312.771 46.7087 312.771 49.3999C312.771 52.5473 311.626 55.2613 309.337 57.542C307.093 59.7771 303.247 61.5561 297.797 62.8789C298.896 64.9771 300.751 66.0262 303.361 66.0262C305.238 66.0262 306.773 65.5929 307.963 64.7262C309.199 63.8596 310.619 62.3999 312.222 60.3473C312.771 59.6631 313.389 59.321 314.076 59.321ZM302.812 47.3473C301.117 47.3473 299.675 48.328 298.484 50.2894C297.339 52.2508 296.767 54.6227 296.767 57.4052V57.542C299.469 56.9034 301.598 55.9455 303.155 54.6683C304.712 53.3911 305.49 51.9087 305.49 50.221C305.49 49.3543 305.238 48.6701 304.735 48.1683C304.277 47.621 303.636 47.3473 302.812 47.3473Z" fill="black"/>
<defs>
<clipPath id="clip0_13_7">
<rect width="21.9033" height="21.8182" fill="white" transform="translate(58.4487 61.4543) rotate(-180)"/>
</clipPath>
</defs>
</svg>
